<svg version="1.2" baseProfile="tiny-ps" xmlns="http://www.w3.org/2000/svg" viewBox="0 0 702 702" width="512" height="512">
	<defs>
		<clipPath clipPathUnits="userSpaceOnUse" id="cp1">
			<path d="M-168 -151L1272 -151L1272 873L-168 873L-168 -151Z" />
		</clipPath>
	</defs>
	<style>
		tspan { white-space:pre }
		.shp0 { fill: #f9f9f9 } 
		.shp1 { fill: #b39edb } 
		.shp2 { fill: #512da8 } 
		.shp3 { fill: #7d58c2 } 
	</style>
	<path id="Layer" class="shp0" d="M-168 -151L-168 -151L-168 -151L-168 -151L-168 -151Z" />
	<g id="Layer">
		<g id="Clip-Path" clip-path="url(#cp1)">
			<g id="Layer">
				<path id="矩形 1" fill-rule="evenodd" class="shp1" d="M58 215L200 215C208.28 215 215 208.28 215 200L215 58C215 49.72 208.28 43 200 43L58 43C49.72 43 43 49.72 43 58L43 200C43 208.28 49.72 215 58 215Z" />
				<path id="矩形 1" fill-rule="evenodd" class="shp1" d="M502 437L644 437C652.28 437 659 430.28 659 422L659 280C659 271.72 652.28 265 644 265L502 265C493.72 265 487 271.72 487 280L487 422C487 430.28 493.72 437 502 437Z" />
				<path id="矩形 1" fill-rule="evenodd" class="shp2" d="M280 215L422 215C430.28 215 437 208.28 437 200L437 58C437 49.72 430.28 43 422 43L280 43C271.72 43 265 49.72 265 58L265 200C265 208.28 271.72 215 280 215Z" />
				<path id="矩形 1" fill-rule="evenodd" class="shp2" d="M58 437L200 437C208.28 437 215 430.28 215 422L215 280C215 271.72 208.28 265 200 265L58 265C49.72 265 43 271.72 43 280L43 422C43 430.28 49.72 437 58 437Z" />
				<path id="矩形 1" fill-rule="evenodd" class="shp2" d="M280 437L422 437C430.28 437 437 430.28 437 422L437 280C437 271.72 430.28 265 422 265L280 265C271.72 265 265 271.72 265 280L265 422C265 430.28 271.72 437 280 437Z" />
				<path id="矩形 1" fill-rule="evenodd" class="shp2" d="M502 659L644 659C652.28 659 659 652.28 659 644L659 502C659 493.72 652.28 487 644 487L502 487C493.72 487 487 493.72 487 502L487 644C487 652.28 493.72 659 502 659Z" />
				<path id="矩形 1" fill-rule="evenodd" class="shp3" d="M502 215L644 215C652.28 215 659 208.28 659 200L659 58C659 49.72 652.28 43 644 43L502 43C493.72 43 487 49.72 487 58L487 200C487 208.28 493.72 215 502 215Z" />
				<path id="矩形 1" fill-rule="evenodd" class="shp3" d="M58 659L200 659C208.28 659 215 652.28 215 644L215 502C215 493.72 208.28 487 200 487L58 487C49.72 487 43 493.72 43 502L43 644C43 652.28 49.72 659 58 659Z" />
				<path id="矩形 1" fill-rule="evenodd" class="shp1" d="M280 659L422 659C430.28 659 437 652.28 437 644L437 502C437 493.72 430.28 487 422 487L280 487C271.72 487 265 493.72 265 502L265 644C265 652.28 271.72 659 280 659Z" />
			</g>
		</g>
	</g>
</svg>